<svg xmlns="http://www.w3.org/2000/svg" width="256" height="256" viewBox="0 0 100 100"><rect width="100" height="100" rx="0" fill="#ffffff"></rect><path fill="#000000" d="M23.22 72.39L10.70 51.75L6.30 57.08L6.30 72.39L0.67 72.39L0.67 27.61L6.30 27.61L6.30 49.23L9.99 44.34L22.05 27.61L28.82 27.61L14.27 47.32L29.96 72.39L23.22 72.39ZM64.32 27.61L64.32 72.39L58.66 72.39L58.66 51.69L40.63 51.69L40.63 72.39L35.00 72.39L35.00 27.61L40.63 27.61L40.63 46.86L58.66 46.86L58.66 27.61L64.32 27.61ZM93.64 61.07L93.64 61.07Q93.64 57.72 91.82 55.94Q90.01 54.15 85.27 52.46Q80.53 50.77 78.02 48.91Q75.52 47.05 74.27 44.66Q73.03 42.28 73.03 39.20L73.03 39.20Q73.03 33.88 76.58 30.44Q80.13 26.99 85.88 26.99L85.88 26.99Q89.82 26.99 92.90 28.76Q95.97 30.53 97.63 33.67Q99.30 36.80 99.30 40.56L99.30 40.56L93.64 40.56Q93.64 36.40 91.64 34.13Q89.64 31.85 85.88 31.85L85.88 31.85Q82.47 31.85 80.59 33.76Q78.72 35.67 78.72 39.11L78.72 39.11Q78.72 41.94 80.75 43.85Q82.78 45.75 87.02 47.26L87.02 47.26Q93.64 49.45 96.48 52.65Q99.33 55.84 99.33 61.01L99.33 61.01Q99.33 66.46 95.79 69.73Q92.25 73.01 86.16 73.01L86.16 73.01Q82.25 73.01 78.95 71.30Q75.64 69.60 73.75 66.50Q71.86 63.41 71.86 59.41L71.86 59.41L77.52 59.41Q77.52 63.57 79.84 65.87Q82.16 68.18 86.16 68.18L86.16 68.18Q89.88 68.18 91.76 66.27Q93.64 64.37 93.64 61.07Z"></path></svg>